<?xml version='1.0' encoding='utf8'?>
<svg class="toyplot-canvas-Canvas" xmlns:toyplot="http://www.sandia.gov/toyplot" xmlns:xlink="http://www.w3.org/1999/xlink" xmlns="http://www.w3.org/2000/svg" width="1000.0px" height="750.0px" viewBox="0 0 1000.0 750.0" preserveAspectRatio="xMidYMid meet" style="background-color:transparent;border-color:#292724;border-style:none;border-width:1.0;fill:rgb(16.1%,15.3%,14.1%);fill-opacity:1.0;font-family:Helvetica;font-size:12px;opacity:1.0;stroke:rgb(16.1%,15.3%,14.1%);stroke-opacity:1.0;stroke-width:1.0" id="tb2e432b9fbab41c18f20cbec255d0f35"><g class="toyplot-coordinates-Cartesian" id="t5f818e5b635c4449a7487916eb701dcd"><clipPath id="tca5dc240f3cc4ea6a76c594bcfbcada4"><rect x="30.0" y="30.0" width="940.0" height="690.0" /></clipPath><g clip-path="url(#tca5dc240f3cc4ea6a76c594bcfbcada4)"><g class="toytree-mark-Toytree" id="t69adc355db394b56ac2a48abbdf95d8b"><g class="toytree-Edges" style="fill:none;stroke:rgb(14.9%,14.9%,14.9%);stroke-linecap:round;stroke-opacity:1;stroke-width:2"><path d="M 51.5 151.4 L 51.5 86.2 L 463.2 86.2" id="63,62" /><path d="M 51.5 151.4 L 51.5 118.3 L 360.3 118.3" id="63,61" /><path d="M 51.5 151.4 L 51.5 156.4 L 360.8 156.4" id="63,60" /><path d="M 51.5 151.4 L 51.5 334.0 L 196.4 334.0" id="63,59" /><path d="M 360.8 156.4 L 360.8 170.4 L 474.4 170.4" id="60,58" /><path d="M 196.4 334.0 L 196.4 282.7 L 561.4 282.7" id="59,57" /><path d="M 196.4 334.0 L 196.4 334.9 L 397.2 334.9" id="59,56" /><path d="M 196.4 334.0 L 196.4 393.1 L 485.0 393.1" id="59,55" /><path d="M 196.4 334.0 L 196.4 468.8 L 494.4 468.8" id="59,54" /><path d="M 196.4 334.0 L 196.4 604.3 L 491.1 604.3" id="59,53" /><path d="M 474.4 170.4 L 474.4 182.5 L 594.4 182.5" id="58,52" /><path d="M 561.4 282.7 L 561.4 294.8 L 623.0 294.8" id="57,51" /><path d="M 485.0 393.1 L 485.0 423.1 L 631.1 423.1" id="55,50" /><path d="M 494.4 468.8 L 494.4 490.3 L 576.1 490.3" id="54,49" /><path d="M 491.1 604.3 L 491.1 571.5 L 617.8 571.5" id="53,48" /><path d="M 491.1 604.3 L 491.1 637.1 L 527.6 637.1" id="53,47" /><path d="M 576.1 490.3 L 576.1 471.3 L 714.5 471.3" id="49,46" /><path d="M 576.1 490.3 L 576.1 509.4 L 634.0 509.4" id="49,45" /><path d="M 617.8 571.5 L 617.8 583.6 L 657.7 583.6" id="48,44" /><path d="M 527.6 637.1 L 527.6 631.7 L 631.0 631.7" id="47,43" /><path d="M 527.6 637.1 L 527.6 671.8 L 582.9 671.8" id="47,42" /><path d="M 634.0 509.4 L 634.0 523.4 L 680.5 523.4" id="45,41" /><path d="M 680.5 523.4 L 680.5 535.4 L 712.3 535.4" id="41,40" /><path d="M 51.5 151.4 L 51.5 62.1 L 727.3 62.1" id="63,39" /><path d="M 463.2 86.2 L 463.2 78.2 L 727.3 78.2" id="62,38" /><path d="M 463.2 86.2 L 463.2 94.2 L 727.3 94.2" id="62,37" /><path d="M 360.3 118.3 L 360.3 110.3 L 727.3 110.3" id="61,36" /><path d="M 360.3 118.3 L 360.3 126.3 L 727.3 126.3" id="61,35" /><path d="M 360.8 156.4 L 360.8 142.4 L 727.3 142.4" id="60,34" /><path d="M 474.4 170.4 L 474.4 158.4 L 727.3 158.4" id="58,33" /><path d="M 594.4 182.5 L 594.4 174.4 L 727.3 174.4" id="52,32" /><path d="M 594.4 182.5 L 594.4 190.5 L 727.3 190.5" id="52,31" /><path d="M 196.4 334.0 L 196.4 206.5 L 727.3 206.5" id="59,30" /><path d="M 196.4 334.0 L 196.4 222.6 L 727.3 222.6" id="59,29" /><path d="M 196.4 334.0 L 196.4 238.6 L 727.3 238.6" id="59,28" /><path d="M 196.4 334.0 L 196.4 254.7 L 727.3 254.7" id="59,27" /><path d="M 561.4 282.7 L 561.4 270.7 L 727.3 270.7" id="57,26" /><path d="M 623.0 294.8 L 623.0 286.8 L 727.3 286.8" id="51,25" /><path d="M 623.0 294.8 L 623.0 302.8 L 727.3 302.8" id="51,24" /><path d="M 397.2 334.9 L 397.2 318.8 L 727.3 318.8" id="56,23" /><path d="M 397.2 334.9 L 397.2 334.9 L 727.3 334.9" id="56,22" /><path d="M 397.2 334.9 L 397.2 350.9 L 727.3 350.9" id="56,21" /><path d="M 485.0 393.1 L 485.0 367.0 L 727.3 367.0" id="55,20" /><path d="M 485.0 393.1 L 485.0 383.0 L 727.3 383.0" id="55,19" /><path d="M 485.0 393.1 L 485.0 399.1 L 727.3 399.1" id="55,18" /><path d="M 631.1 423.1 L 631.1 415.1 L 727.3 415.1" id="50,17" /><path d="M 631.1 423.1 L 631.1 431.2 L 727.3 431.2" id="50,16" /><path d="M 494.4 468.8 L 494.4 447.2 L 727.3 447.2" id="54,15" /><path d="M 714.5 471.3 L 714.5 463.2 L 727.3 463.2" id="46,14" /><path d="M 714.5 471.3 L 714.5 479.3 L 727.3 479.3" id="46,13" /><path d="M 634.0 509.4 L 634.0 495.3 L 727.3 495.3" id="45,12" /><path d="M 680.5 523.4 L 680.5 511.4 L 727.3 511.4" id="41,11" /><path d="M 712.3 535.4 L 712.3 527.4 L 727.3 527.4" id="40,10" /><path d="M 712.3 535.4 L 712.3 543.5 L 727.3 543.5" id="40,9" /><path d="M 617.8 571.5 L 617.8 559.5 L 727.3 559.5" id="48,8" /><path d="M 657.7 583.6 L 657.7 575.6 L 727.3 575.6" id="44,7" /><path d="M 657.7 583.6 L 657.7 591.6 L 727.3 591.6" id="44,6" /><path d="M 527.6 637.1 L 527.6 607.6 L 727.3 607.6" id="47,5" /><path d="M 631.0 631.7 L 631.0 623.7 L 727.3 623.7" id="43,4" /><path d="M 631.0 631.7 L 631.0 639.7 L 727.3 639.7" id="43,3" /><path d="M 582.9 671.8 L 582.9 655.8 L 727.3 655.8" id="42,2" /><path d="M 582.9 671.8 L 582.9 671.8 L 727.3 671.8" id="42,1" /><path d="M 582.9 671.8 L 582.9 687.9 L 727.3 687.9" id="42,0" /></g><g class="toytree-AlignEdges" style="stroke:rgb(66.3%,66.3%,66.3%);stroke-dasharray:2, 4;stroke-linecap:round;stroke-opacity:1.0;stroke-width:2"><path d="M 727.3 687.9 L 727.3 687.9" /><path d="M 727.3 671.8 L 727.3 671.8" /><path d="M 727.3 655.8 L 727.3 655.8" /><path d="M 727.3 639.7 L 727.3 639.7" /><path d="M 727.3 623.7 L 727.3 623.7" /><path d="M 727.3 607.6 L 727.3 607.6" /><path d="M 727.3 591.6 L 727.3 591.6" /><path d="M 727.3 575.6 L 727.3 575.6" /><path d="M 727.3 559.5 L 727.3 559.5" /><path d="M 727.3 543.5 L 727.3 543.5" /><path d="M 727.3 527.4 L 727.3 527.4" /><path d="M 727.3 511.4 L 727.3 511.4" /><path d="M 727.3 495.3 L 727.3 495.3" /><path d="M 727.3 479.3 L 727.3 479.3" /><path d="M 727.3 463.2 L 727.3 463.2" /><path d="M 727.3 447.2 L 727.3 447.2" /><path d="M 727.3 431.2 L 727.3 431.2" /><path d="M 727.3 415.1 L 727.3 415.1" /><path d="M 727.3 399.1 L 727.3 399.1" /><path d="M 727.3 383.0 L 727.3 383.0" /><path d="M 727.3 367.0 L 727.3 367.0" /><path d="M 727.3 350.9 L 727.3 350.9" /><path d="M 727.3 334.9 L 727.3 334.9" /><path d="M 727.3 318.8 L 727.3 318.8" /><path d="M 727.3 302.8 L 727.3 302.8" /><path d="M 727.3 286.8 L 727.3 286.8" /><path d="M 727.3 270.7 L 727.3 270.7" /><path d="M 727.3 254.7 L 727.3 254.7" /><path d="M 727.3 238.6 L 727.3 238.6" /><path d="M 727.3 222.6 L 727.3 222.6" /><path d="M 727.3 206.5 L 727.3 206.5" /><path d="M 727.3 190.5 L 727.3 190.5" /><path d="M 727.3 174.4 L 727.3 174.4" /><path d="M 727.3 158.4 L 727.3 158.4" /><path d="M 727.3 142.4 L 727.3 142.4" /><path d="M 727.3 126.3 L 727.3 126.3" /><path d="M 727.3 110.3 L 727.3 110.3" /><path d="M 727.3 94.2 L 727.3 94.2" /><path d="M 727.3 78.2 L 727.3 78.2" /><path d="M 727.3 62.1 L 727.3 62.1" /></g><g class="toytree-TipLabels" style="fill:rgb(14.9%,14.9%,14.9%);fill-opacity:1.0;font-family:helvetica;font-size:11px;font-weight:normal;stroke:none;white-space:pre"><g transform="translate(727.35,687.87)rotate(0)"><a href="https://glottolog.org/resource/languoid/id/sout2957#############"><text x="15.00" y="2.81" style="" fill="#0000ff">tceS - Southern Tutchone [sout2957#############]</text></a></g><g transform="translate(727.35,671.83)rotate(0)"><a href="https://glottolog.org/resource/languoid/id/nort2941#############"><text x="15.00" y="2.81" style="" fill="#0000ff">ttmN - Northern Tutchone [nort2941#############]</text></a></g><g transform="translate(727.35,655.78)rotate(0)"><a href="https://glottolog.org/resource/languoid/id/chip1261#############"><text x="15.00" y="2.81" style="" fill="#0000ff">chp - Chipewyan [chip1261#############]</text></a></g><g transform="translate(727.35,639.74)rotate(0)"><a href="https://glottolog.org/resource/languoid/id/kask1239#############"><text x="15.00" y="2.81" style="" fill="#0000ff">kkz - Kaska [kask1239#############]</text></a></g><g transform="translate(727.35,623.69)rotate(0)"><a href="https://glottolog.org/resource/languoid/id/sout2959#############"><text x="15.00" y="2.81" style="" fill="#0000ff">xsl - South Slavey [sout2959#############]</text></a></g><g transform="translate(727.35,607.65)rotate(0)"><a href="https://glottolog.org/resource/languoid/id/hann1241#############"><text x="15.00" y="2.81" style="" fill="#0000ff">haa - Han [hann1241#############]</text></a></g><g transform="translate(727.35,591.60)rotate(0)"><a href="https://glottolog.org/resource/languoid/id/tana1290#############"><text x="15.00" y="2.81" style="" fill="#0000ff">tcb - Tanacross [tana1290#############]</text></a></g><g transform="translate(727.35,575.56)rotate(0)"><a href="https://glottolog.org/resource/languoid/id/lowe1425#############"><text x="15.00" y="2.81" style="" fill="#0000ff">taa - Lower Tanana [lowe1425#############]</text></a></g><g transform="translate(727.35,559.51)rotate(0)"><a href="https://glottolog.org/resource/languoid/id/uppe1437#############"><text x="15.00" y="2.81" style="" fill="#0000ff">tau - Upper Tanana [uppe1437#############]</text></a></g><g transform="translate(727.35,543.47)rotate(0)"><a href="https://glottolog.org/resource/languoid/id/west2615#############"><text x="15.00" y="2.81" style="" fill="#0000ff">apw - Western Apache [west2615#############]</text></a></g><g transform="translate(727.35,527.42)rotate(0)"><a href="https://glottolog.org/resource/languoid/id/mesc1238#############"><text x="15.00" y="2.81" style="" fill="#0000ff">apc - Mescalero-Chiricahua Apache [mesc1238#############]</text></a></g><g transform="translate(727.35,511.38)rotate(0)"><a href="https://glottolog.org/resource/languoid/id/jica1244#############"><text x="15.00" y="2.81" style="" fill="#0000ff">apj - Jicarilla Apache [jica1244#############]</text></a></g><g transform="translate(727.35,495.33)rotate(0)"><a href="https://glottolog.org/resource/languoid/id/nava1243#############"><text x="15.00" y="2.81" style="" fill="#0000ff">nav - Navajo [nava1243#############]</text></a></g><g transform="translate(727.35,479.29)rotate(0)"><a href="https://glottolog.org/resource/languoid/id/lipa1241#############"><text x="15.00" y="2.81" style="" fill="#0000ff">apl - Lipan Apache [lipa1241#############]</text></a></g><g transform="translate(727.35,463.25)rotate(0)"><a href="https://glottolog.org/resource/languoid/id/kiow1264#############"><text x="15.00" y="2.81" style="" fill="#0000ff">apk - Kiowa Apache [kiow1264#############]</text></a></g><g transform="translate(727.35,447.20)rotate(0)"><a href="https://glottolog.org/resource/languoid/id/sars1236#############"><text x="15.00" y="2.81" style="" fill="#0000ff">srs - Sarsi [sars1236#############]</text></a></g><g transform="translate(727.35,431.16)rotate(0)"><a href="https://glottolog.org/resource/languoid/id/carr1249#############"><text x="15.00" y="2.81" style="" fill="#0000ff">crx - Central Carrier [carr1249#############]</text></a></g><g transform="translate(727.35,415.11)rotate(0)"><a href="https://glottolog.org/resource/languoid/id/beav1236#############"><text x="15.00" y="2.81" style="" fill="#0000ff">bea - Beaver [beav1236#############]</text></a></g><g transform="translate(727.35,399.07)rotate(0)"><a href="https://glottolog.org/resource/languoid/id/nort2942#############"><text x="15.00" y="2.81" style="" fill="#0000ff">scsh - North Slavey [nort2942#############]</text></a></g><g transform="translate(727.35,383.02)rotate(0)"><a href="https://glottolog.org/resource/languoid/id/dogr1252#############"><text x="15.00" y="2.81" style="" fill="#0000ff">dgr - Dogrib [dogr1252#############]</text></a></g><g transform="translate(727.35,366.98)rotate(0)"><a href="https://glottolog.org/resource/languoid/id/gwic1235#############"><text x="15.00" y="2.81" style="" fill="#0000ff">gwi - Gwich'in [gwic1235#############]</text></a></g><g transform="translate(727.35,350.93)rotate(0)"><a href="https://glottolog.org/resource/languoid/id/coqu1236#############"><text x="15.00" y="2.81" style="" fill="#0000ff">cco - Coquille [coqu1236#############]</text></a></g><g transform="translate(727.35,334.89)rotate(0)"><a href="https://glottolog.org/resource/languoid/id/tolo1259#############"><text x="15.00" y="2.81" style="" fill="#0000ff">tol - Tolowa-Chetco [tolo1259#############]</text></a></g><g transform="translate(727.35,318.84)rotate(0)"><a href="https://glottolog.org/resource/languoid/id/gali1261#############"><text x="15.00" y="2.81" style="" fill="#0000ff">gce - Galice [gali1261#############]</text></a></g><g transform="translate(727.35,302.80)rotate(0)"><a href="https://glottolog.org/resource/languoid/id/koyu1237#############"><text x="15.00" y="2.81" style="" fill="#0000ff">koy - Koyukon [koyu1237#############]</text></a></g><g transform="translate(727.35,286.75)rotate(0)"><a href="https://glottolog.org/resource/languoid/id/holi1241#############"><text x="15.00" y="2.81" style="" fill="#0000ff">hoi - Holikachuk [holi1241#############]</text></a></g><g transform="translate(727.35,270.71)rotate(0)"><a href="https://glottolog.org/resource/languoid/id/dege1248#############"><text x="15.00" y="2.81" style="" fill="#0000ff">ing - Degexit'an [dege1248#############]</text></a></g><g transform="translate(727.35,254.67)rotate(0)"><a href="https://glottolog.org/resource/languoid/id/tana1289#############"><text x="15.00" y="2.81" style="" fill="#0000ff">tfn - Dena'ina [tana1289#############]</text></a></g><g transform="translate(727.35,238.62)rotate(0)"><a href="https://glottolog.org/resource/languoid/id/ahte1237#############"><text x="15.00" y="2.81" style="" fill="#0000ff">aht - Ahtena [ahte1237#############]</text></a></g><g transform="translate(727.35,222.58)rotate(0)"><a href="https://glottolog.org/resource/languoid/id/uppe1438#############"><text x="15.00" y="2.81" style="" fill="#0000ff">kuu - Upper Kuskokwim [uppe1438#############]</text></a></g><g transform="translate(727.35,206.53)rotate(0)"><a href="https://glottolog.org/resource/languoid/id/tset1236#############"><text x="15.00" y="2.81" style="" fill="#0000ff">txc - Tsetsaut [tset1236#############]</text></a></g><g transform="translate(727.35,190.49)rotate(0)"><a href="https://glottolog.org/resource/languoid/id/kato1244#############"><text x="15.00" y="2.81" style="" fill="#0000ff">kto - Kato [kato1244#############]</text></a></g><g transform="translate(727.35,174.44)rotate(0)"><a href="https://glottolog.org/resource/languoid/id/wail1244#############"><text x="15.00" y="2.81" style="" fill="#0000ff">wlk - Eel River Athabaskan [wail1244#############]</text></a></g><g transform="translate(727.35,158.40)rotate(0)"><a href="https://glottolog.org/resource/languoid/id/matt1238#############"><text x="15.00" y="2.81" style="" fill="#0000ff">mtl - Mattole-Bear River [matt1238#############]</text></a></g><g transform="translate(727.35,142.35)rotate(0)"><a href="https://glottolog.org/resource/languoid/id/hupa1239#############"><text x="15.00" y="2.81" style="" fill="#0000ff">hup - Hupa-Chilula [hupa1239#############]</text></a></g><g transform="translate(727.35,126.31)rotate(0)"><a href="https://glottolog.org/resource/languoid/id/tlin1245#############"><text x="15.00" y="2.81" style="" fill="#0000ff">tli - Tlingit [tlin1245#############]</text></a></g><g transform="translate(727.35,110.26)rotate(0)"><a href="https://glottolog.org/resource/languoid/id/eyak1241#############"><text x="15.00" y="2.81" style="" fill="#0000ff">eya - Eyak [eyak1241#############]</text></a></g><g transform="translate(727.35,94.22)rotate(0)"><a href="https://glottolog.org/resource/languoid/id/kott1239#############"><text x="15.00" y="2.81" style="" fill="#0000ff">zko - Kott-Assan [kott1239#############]</text></a></g><g transform="translate(727.35,78.17)rotate(0)"><a href="https://glottolog.org/resource/languoid/id/kett1243#############"><text x="15.00" y="2.81" style="" fill="#0000ff">ket - Ket [kett1243#############]</text></a></g><g transform="translate(727.35,62.13)rotate(0)"><a href="https://glottolog.org/resource/languoid/id/sout2956#############"><text x="15.00" y="2.81" style="" fill="#0000ff">hax - Southern Haida [sout2956#############]</text></a></g></g></g></g><g class="toyplot-coordinates-Axis" id="t4a8c8caebdd34386a0813aa1be8d9671" transform="translate(50.0,700.0)translate(0,20.0)"><line x1="1.5018785998152155" y1="0" x2="677.3472485166862" y2="0" style="" /><g><line x1="677.3472485166862" y1="0" x2="677.3472485166862" y2="-5" style="" /><line x1="602.2533185259227" y1="0" x2="602.2533185259227" y2="-5" style="" /><line x1="527.1593885351593" y1="0" x2="527.1593885351593" y2="-5" style="" /><line x1="452.065458544396" y1="0" x2="452.065458544396" y2="-5" style="" /><line x1="376.97152855363254" y1="0" x2="376.97152855363254" y2="-5" style="" /><line x1="301.8775985628691" y1="0" x2="301.8775985628691" y2="-5" style="" /><line x1="226.78366857210565" y1="0" x2="226.78366857210565" y2="-5" style="" /><line x1="151.68973858134225" y1="0" x2="151.68973858134225" y2="-5" style="" /><line x1="76.5958085905788" y1="0" x2="76.5958085905788" y2="-5" style="" /><line x1="1.5018785998153428" y1="0" x2="1.5018785998153428" y2="-5" style="" /></g><g><g transform="translate(677.3472485166862,6)"><text x="-9.729999999999999" y="8.555" style="fill:rgb(16.1%,15.3%,14.1%);fill-opacity:1.0;font-family:helvetica;font-size:10.0px;font-weight:normal;stroke:none;vertical-align:baseline;white-space:pre">0.00</text></g><g transform="translate(602.2533185259227,6)"><text x="-9.729999999999999" y="8.555" style="fill:rgb(16.1%,15.3%,14.1%);fill-opacity:1.0;font-family:helvetica;font-size:10.0px;font-weight:normal;stroke:none;vertical-align:baseline;white-space:pre">0.02</text></g><g transform="translate(527.1593885351593,6)"><text x="-9.729999999999999" y="8.555" style="fill:rgb(16.1%,15.3%,14.1%);fill-opacity:1.0;font-family:helvetica;font-size:10.0px;font-weight:normal;stroke:none;vertical-align:baseline;white-space:pre">0.03</text></g><g transform="translate(452.065458544396,6)"><text x="-9.729999999999999" y="8.555" style="fill:rgb(16.1%,15.3%,14.1%);fill-opacity:1.0;font-family:helvetica;font-size:10.0px;font-weight:normal;stroke:none;vertical-align:baseline;white-space:pre">0.05</text></g><g transform="translate(376.97152855363254,6)"><text x="-9.729999999999999" y="8.555" style="fill:rgb(16.1%,15.3%,14.1%);fill-opacity:1.0;font-family:helvetica;font-size:10.0px;font-weight:normal;stroke:none;vertical-align:baseline;white-space:pre">0.07</text></g><g transform="translate(301.8775985628691,6)"><text x="-9.729999999999999" y="8.555" style="fill:rgb(16.1%,15.3%,14.1%);fill-opacity:1.0;font-family:helvetica;font-size:10.0px;font-weight:normal;stroke:none;vertical-align:baseline;white-space:pre">0.08</text></g><g transform="translate(226.78366857210565,6)"><text x="-9.729999999999999" y="8.555" style="fill:rgb(16.1%,15.3%,14.1%);fill-opacity:1.0;font-family:helvetica;font-size:10.0px;font-weight:normal;stroke:none;vertical-align:baseline;white-space:pre">0.10</text></g><g transform="translate(151.68973858134225,6)"><text x="-9.729999999999999" y="8.555" style="fill:rgb(16.1%,15.3%,14.1%);fill-opacity:1.0;font-family:helvetica;font-size:10.0px;font-weight:normal;stroke:none;vertical-align:baseline;white-space:pre">0.11</text></g><g transform="translate(76.5958085905788,6)"><text x="-9.729999999999999" y="8.555" style="fill:rgb(16.1%,15.3%,14.1%);fill-opacity:1.0;font-family:helvetica;font-size:10.0px;font-weight:normal;stroke:none;vertical-align:baseline;white-space:pre">0.13</text></g><g transform="translate(1.5018785998153428,6)"><text x="-9.729999999999999" y="8.555" style="fill:rgb(16.1%,15.3%,14.1%);fill-opacity:1.0;font-family:helvetica;font-size:10.0px;font-weight:normal;stroke:none;vertical-align:baseline;white-space:pre">0.15</text></g></g><g class="toyplot-coordinates-Axis-coordinates" style="visibility:hidden" transform=""><line x1="0" x2="0" y1="-3.0" y2="4.5" style="stroke:rgb(43.9%,50.2%,56.5%);stroke-opacity:1.0;stroke-width:1.0" /><text x="0" y="-6" style="alignment-baseline:alphabetic;fill:rgb(43.9%,50.2%,56.5%);fill-opacity:1.0;font-size:10px;font-weight:normal;stroke:none;text-anchor:middle" /></g></g><g transform="translate(500.0,42.0)"><text x="-321.713" y="-4.823" style="fill:rgb(16.1%,15.3%,14.1%);fill-opacity:1.0;font-family:helvetica;font-size:14.0px;font-weight:bold;stroke:none;vertical-align:baseline;white-space:pre">Summary tree of a Bayesian analysis of the Dene-Yenesian family with branches in substitutions</text></g></g></svg>